<mxfile host="65bd71144e">
    <diagram id="HIP3nbAZw_EuaXWnEj3U" name="Page-1">
        <mxGraphModel dx="912" dy="584" grid="1" gridSize="10" guides="1" tooltips="1" connect="1" arrows="1" fold="1" page="1" pageScale="1" pageWidth="850" pageHeight="1100" math="0" shadow="0">
            <root>
                <mxCell id="0"/>
                <mxCell id="1" parent="0"/>
                <mxCell id="7" value="http://ics2o.mths.ca" style="swimlane;whiteSpace=wrap;html=1;" parent="1" vertex="1">
                    <mxGeometry x="40" y="40" width="760" height="480" as="geometry"/>
                </mxCell>
                <mxCell id="8" value="&lt;font style=&quot;font-size: 36px;&quot;&gt;&amp;nbsp;volume of a Sphere&lt;/font&gt;" style="text;html=1;align=center;verticalAlign=middle;resizable=0;points=[];autosize=1;strokeColor=none;fillColor=none;" vertex="1" parent="7">
                    <mxGeometry x="35" y="50" width="350" height="60" as="geometry"/>
                </mxCell>
                <mxCell id="9" value="&lt;font style=&quot;font-size: 24px;&quot;&gt;v = (3/4)&lt;span style=&quot;color: rgb(31, 31, 31); font-family: &amp;quot;Google Sans&amp;quot;, Arial, sans-serif; text-align: start; text-wrap-mode: wrap; background-color: rgb(255, 255, 255);&quot;&gt;πr³&lt;/span&gt;&lt;/font&gt;" style="text;html=1;align=center;verticalAlign=middle;resizable=0;points=[];autosize=1;strokeColor=none;fillColor=none;rotation=0;" vertex="1" parent="7">
                    <mxGeometry x="55" y="120" width="150" height="40" as="geometry"/>
                </mxCell>
                <mxCell id="10" value="&lt;font style=&quot;font-size: 18px;&quot;&gt;radius:&lt;/font&gt;" style="text;html=1;align=center;verticalAlign=middle;resizable=0;points=[];autosize=1;strokeColor=none;fillColor=none;" vertex="1" parent="7">
                    <mxGeometry x="40" y="270" width="80" height="40" as="geometry"/>
                </mxCell>
                <mxCell id="12" value="enter value" style="whiteSpace=wrap;html=1;" vertex="1" parent="7">
                    <mxGeometry x="120" y="275" width="150" height="30" as="geometry"/>
                </mxCell>
                <mxCell id="14" value="&lt;font style=&quot;font-size: 14px;&quot;&gt;Please enter integers for radius:&lt;/font&gt;" style="text;html=1;align=center;verticalAlign=middle;resizable=0;points=[];autosize=1;strokeColor=none;fillColor=none;" vertex="1" parent="7">
                    <mxGeometry x="50" y="180" width="220" height="30" as="geometry"/>
                </mxCell>
                <mxCell id="13" value="mm" style="text;html=1;align=center;verticalAlign=middle;resizable=0;points=[];autosize=1;strokeColor=none;fillColor=none;" vertex="1" parent="7">
                    <mxGeometry x="280" y="275" width="40" height="30" as="geometry"/>
                </mxCell>
                <mxCell id="15" value="Calculate" style="rounded=1;whiteSpace=wrap;html=1;" vertex="1" parent="7">
                    <mxGeometry x="85" y="340" width="150" height="50" as="geometry"/>
                </mxCell>
                <mxCell id="17" value="" style="shape=image;verticalLabelPosition=bottom;labelBackgroundColor=default;verticalAlign=top;aspect=fixed;imageAspect=0;image=data:image/png,iVBORw0KGgoAAAANSUhEUgAAAMkAAADBCAIAAADq9wM/AAAAAXNSR0IArs4c6QAAHLFJREFUeJztnddvXFeeoO8956aqWzkxJ5FikkiKlNiS7Jbbod12u+3pnunZwWKAwWCxAwywD/uP7Ms+7MsC+7DAArM7mNlp9ITedtstK9qWKZKiEhWZQ5FVrFx10wn7cCW2WskKdUOV7mdIKJhUnd+t+u655/xOYimljIeHBQCnA/BoWjy3PKzCc8vDKjy3PKzCc8vDKjy3PKzCc8vDKjy3PKzCc8vDKjy3PKzCc8vDKjy3PKzCc8vDKjy3PKzCc8vDKjy3PKzCc8vDKjy3PKzCc8vDKjy3PKzCc8vDKjy3PKzCc8vDKjy3PKzCc8vDKjy3PKzCc8vDKjy3PKzCc8vDKjy3PKzCc8vDKjy3PKzCc8vDKjy3PKzCc8vDKjy3PKzCc8vDKjy3PKzCc8vDKjy3PKyCczoAl4IxLpXKhWKpVqsZCFFKIQd9ohQKBcPhkCgILMs6HaPbYb1zMTLZvY3NzZuLt+evXt/Y3uYh15pKdne1p5LJWCQSkGVeEFiWRQjVFKVYLGVze1tbOytr69Wa4veLk2OHj4wf7unuaW1tEUXB6atxEW+WWxhjTdNUVStXypcuz83MXoEQ9HV3Dg8Njo6MJBPxV3hPXddv37l3/eat+0vLe/nCgb7ud3/4dmtLSpIkURQE4c217Y1wC2FcKBRKpUqlUrl56/bS6lpLMnHq5Imurg5Jkur4dNMNI5/Lz8zNzy1cSyXio8ND3d1dHITxWLS+BTUETe5WsVTa3EpXKuXt9M7G5vbI0MGxQ6OJRNyGr1nVtHv3lmbm5hEmI4MDwUAglUokEwmOe1PauM3pFsZkN7O7vLKmalomuyfw/FvHp1OppCM1R7Vau35zcWVtPRiQZdnf1tLS09MtvgHPymZzC2O8ur5x5+59wDK6YfR2d/f39/kkyem4GITQ1vb23fvLGCFV01tbUkcnJyCETsdlIc3jFqU0k81+c2mmpqgd7W09XZ3tba08zzsd1+Pkcvl7S8t7udza+sbx6aPjhw8B0JxZxiZxS9W0L06fyecLo8ODLalUa2sL7+JmDaW0VC6vrK4vLa9k93I/fu9UX2+v00HVn2Zw67vLc1+cPvvj99/p6+mJRSON0ljWNH11dYMweGZ2ThTEn/z4vUg47HRQ9aSx3coXin/39/8YDAb+5GcfBwOBxmq+bKV3gwE5IPurtdrc/NUrV6+9987bh0ZHmuYR2ahuIYRnZufOXfj655/+dPDgQMN9HzVFzeUKnR2t+/9nN5P9x1/9c2tL6sP33w0GA45GVx8azy1CSL5QvPD1t5VK5cMP3k0lk05H9NJQSre2dmPx8GMdWIzx//v8y83t7Y8+/KCzo51rqGr4SRrMLV03lldWr16/kUwmTkwfkyTR6YhehVK5oqp6Khl78keU0uXl1X/7/MsT01ODBwfC4ZATAdaHRnJLVdW5K1dX19bHxw6NDg816BAKwjiT2YtFI88Z2K4pyv/91T+HgoFjR6c62tvsDbBuNIxb1Wrt3MWvFUWdPjrV1dnudDivCKW0UCwzDA2HQgA8794ghJw9f7FQLI4ODx0c6G+4BmXDuJXJ7p0+ez4UDL598gehYNDpcF4dTdMLpXIkHHyRMR+M8eLtO7fu3O3p6pqcGGuU3Mo+DRDu5vb2b393euhg//SxqYYehqOUVmuKJAgvmNeFEA4PDfp8vrn5BV03po8eaawZO26vt5aWV786d/7Y5JFDo8MNd+M+hqpqlWotGJBfagohxnhrO/3td5c72tuOTTWSXq5+im9sbp05d+EHx6YOHRppdLEopTVF4zhOEF5uiBNC2NHedurtE7fv3p+7cg0hZFmMdca9bm1ubX/+5VfHpo6MDg81eqbHrLQIwT6f+ArdWwBASyr12ScfXb1+Y/HWHUKINTHWGZe6lclkz56/eGh0+NDocGON5DwVjElNVTkOvnJ7kWXZRDz2i89++m+ff7GyulbvAC3BdW5RSoul0qXLs8lkYmpirAnEYhhG03WMiOz3veb7pJLJv/yLX/7mt1/uZjJ1Cs1CXOeWoqgzs/MMw55660QDtVufA8ZYVVVR5Osymay7q/PjD9/7P//wT5lsth7RWYi73EIILd6+UyiWTh6fllwwWbQuaLqBEJZlf73esL//wJHxsdNnzhWKxXq9pxW4yC1K6crq2r37Syemj8ZjUafDqQ+YkGq16vNJdeyOsCx76u2T8Xj83PlvNE2v19vWHRe5Va5Uzl38ZnxstHFH0J5EVTVM6Ou3tB6DZdmTPziGMJqZnXNthtItblFKf/0vvxk40Dd4cKBBB6GfxBw9DAcDVowG+v3+49NHd3Z27y+v1P3N64Jb3JqZnWdY5vj0UQiaoWNoUqnWOA5aNBGIZdmWltTAwIGFq9fd2fByhVt7ufzvz5z7+aefiGJDzsd6FrLfl4hFrauGOQj7D/SFQqFr1xZdmFB13i1K6a//9Tef/vQnDT3B4akAACC09hMOyPLB/r7MXsaFCVXn3bp+Y1GSxIH+fqcDqQOUUowJxpiQBy9saGh3d3VGo9F795cVRbG6rJfCYbdKpdLM7PzJ49NSU+wuVKupW9s7y6ube/nC+ub20vJ6uVK1ulAAwJGxw6qmrqyuu+rJ6KRbGOO5K1cH+vtaW1qao28oy75oJMRxkKFMPBaRJMGeMatoNNLe1ra0vFIuV2wo7gVx0q30zu5eLt/b0+2G/RrqBUKYZdhQSA7I/paWhN9n06WNjgwpqrq1ve2eqssxtwyE7t5fSiWTqWTCqRjqDqVUNwyOgwAAlmUF3r6tK/0+3+jI0LWbizXXtLoccyuzm1Fqtc6OdlFsnkoLY4wQFgUBsA58sAMH+hDC6+ubLsnUO+MWxnhlbZ3j+Pa21qZoaD3AMBDCmOe556/hsQhBEKanJmfnr7jkseiMW3u5fKFY7OrqaLLNZwVRaEnGAwG/U12Tvt7uaq22tZ12pPTHcMAtQshuJoMx7unusr90S4EAiKJNfcOnwnHcO2+d+O3vfu9UAI/igFuKouzuZhPxRDN1D93DwYMDu9lMoeD8CKMDbuUKxe2dnZGhAfuLtghKqabrum44HQhjVl1vnzzx3eyc04HY7hZCOJvdCwUC4Sbax8wwUKlUcUkLmmGYY5NH5heuqarmbBh2u6Vp2vrGxtDQweZIxJuVlqJqDMu6Z1OdQEBuTSUdH722261KtbKbyXZ1dthcrnUYBlIUJeSy3dimJieu3bjpbAy2ukUp3dzabrJWfKVSFQVBfMnV0lbT2dFeKpednRlht1u3bt8dOzRsZ6GWouu6quku3ELS7/NFwqHNrW0HY7DVLVVTC8ViW1vrC/xuY7CXKwYCMse5bh42x3HdXZ137y85GIOtbmWze4FAoGkeiDVFwxgHAnVbeFhHAADJRGJ7Z9fB3qutbt2+c+9Ab3fT9BBzuVwiHgWuvByWZYPBQDAg53J5p2KwdeOh2/fu/9lnn9hT1nPmAhBKMcIII4QJQRgRghGilDLMwz8MQ8n+ezz427wl9v/GhBgGzheLoMiyLIAchBBACCGEHIQQwucMV9tzd4mCGI9EMtls4pXOhXx97HPLMIz0TqalpaWO70kppZQSQilDGcowDEWIYIwxIRhjhBAyMMKYEMowFEAAWNb8AwCAAAAWAAgEjgOCAABgWYZhGZZhH+EPHphlmPYhjPf2CslEDEJAKaWEEkoIIbpuUKJjSgimhBBCCaWUYMKwDACA4yAHOY6DHIQAAAghx4GHBbAAPCyyTgiiEAqHd3YzI8ND9XrPl8I+t3K5QiIWfZ1VoJRSTExMoSgh1EBI03RMMEMZhmUhYCGEPM9JosDJftOnP64q6vD11QqKLPtkv+9ZlZNZ1T36mlJKGYZgbBjYQIaqGhghSihlKMsyEEJBEASeZx+qbeoPAXjlcDkIZb9va3sbY+zI8Ll9bm1ubfX2vFxji1KKMTYQxhiblQbCGBNCEMaEAAAEnuMF3u+TzGdQfe/7Z6Ebhm7oz99o2fT5ydcMhILAMIxv/wLNOwRjbBhI03XDQIQQCACEEADA8dC8JAghx0EI4YtfIABAEEXDQLpu+HxN7dZWeqe764XS8QZCuqYjhDEhDMOYzxuGZTkIeZ6TBZ7joD0aPQmltFqtCYLA83X46B5WUQzHwf2pbKZwCGFdNwyEEMYMpQAAs0YDkIUQSqLwIpt0CjwvCHytVvPZNW3/Uexzay+3NzE2+qyfEkI0Tdc0HWEMAGve6ACwPM8LPA8hcEqmx9B0HWMSCPit2/DdvFJBAObOqKZqGBNd1w3jQa2t6zqhDAeAKImiwD8rGEmSRFEslsvx+FPO4LAam9wihNSqteATK6cppaqqV2s1QjDH8RzHiRByPMdzEIDndbXqAn0Iy4IXKYsQotRUnuMEG4/83G9+mTWl2TBACBkGZihRFLVcrgAIZb9PEh9f+iGJgsDz5XLZtmgfxSa3DANpmh4I/GFshBBSqSqVShUAIEmiIPh4nuNepj3x+lRrSrFUIYREI8GALH/v72uajjHx+30OnlLBsizPcTzHSRLDUIoQNhDSdaNQKDGUBoMBWfbtf4aCIPA8X63WHAnVNrd0Qqm5vxkhtFqtlUpljufDoYAgCJCDjmQg/T7JMIxsNi8kvz8DhAlRNZ3j4ctu4m0RZu+X5zme5yRRlP0+3dDL5VquUIyGQ8GgzDAMgBAAoOnO7P9mk1sIY3PXDcNAu5k9lmVj8agoCI6sh9kHAKAZBsfBFxkQNHQdISMSDrmh2fcYALAAcDzP+SRJN1AmkyuWyqlk3Ow9U4eGfexyCyFBEA3DSKczoVAwFAo4+A2Zs/l0XQcA6KouStL3PuMQwjVF4wXBhYerPwoAQBKFzo6WSrWW3s0mYhEAgXnJ9n/gNrmlqhrPc+mdvXg86q/3Bo0vhYFQLlfEGEUioXK5qhsoHHre3kyUUkXRSpUKQjgZb4xdWFmWDQZkAEC+UMLYTDIT+9OndtVbhoEQkSSB4zhH1iyYjSRCSLlc0Q0jHov4fRIycKVSMxNLZkrpyVFI3TDSu1lKKACgVK6GWIZlXPdMfCoQAlESKlWFoYQQan9m3ia3MKGGYUAIK070WViWEYSwWWnVaqokCOaWTJquA8Duu6WoKkL4sX+rahol9EECQlHM7L/9l/BqqIpWLJV8kujIKn7bcqc0l8uJolNzfx/YQDBBCJlJBHPhlyg+OGCHBUD2+578DgSBVxUNEwIA6/f7QqFAw5jFMOVyaXll5eCBPkdKt8ktCKFu6N9+N/PBu+/YU+JTMZOQGGOMca2mGgaSZT8hxMycPrVFIkOYiEcNhDgIfH7fCx596AY0Xd9OpxmGipLoSFVrUw6Q57mWltT6+sal7y47uMsKz3Oy31+rqbuZPQMZLMvWasrzH9Msy4ZCgWgkFAoF7UzHvyYI4bkrC0vLq4dHhgX+mYNClmLTXSiKIsdxH//kg8+/PJ3N7b33o3f8Pgd6ixDCSCTolyWGMjzPy34/oYTnvt+YxjouWtO0r85dWFvf/PjD99M7O5VqDTgxx8a2eovXdaMllfr0px8Jgvjf/8f/PHfha01zYOEvhNAnST6fZE498EmSC1dSvDII4XPnL/6X//rfeI775S8+a2ttJYSyjDO9D7vaWwAQjFmWjcdi7//o1PDgwc+/PH3u4tfvv3Nq8siEIzNAmgxFUb/97vIXp8/2H+j52//414l4nGVZhBBDqVODHza5xfM8ACxCiOM4CGFXZ8d/+Ku/3NpOn7/4ze/PnB8ePnj82NF4LMZxHM9zjfUAcgpKqa4buqFnMtnvLs/dW1oZGuz/z//pb1Kp1P7gLMIYU+LUUYE2uSUIgiiKpXI5Fn2Q2jYN+/f/7s9qinLr9t3PvzitG0ZPV+fBgX6/7Pf7fH6fJAhO7mXlQjDGuq7XakpNUVRVu3Pv3tr6pk+SxscO/ezjj2TZ/1gVpWu6oRv7n7nN2OQWy7IBWS6VK49dJwAgIMvHpo5MToxVqtXNre2Fa9fzhUJLMplKJYLBIMdxoiBEIuGALEMONtNpPy8CIcQwjEq1WiyWNV03DKNSKad3Mund3Xg0dmT88Km3Tsqy/1l3oKZpmqY7deCIfdmaRDyWzWZ7n7FXIIQwHAqFQ6HhwYO6rheKxe30ztr6RrFY5gUuEY9xkCOEBAKBQEAOh0LhcEgSX+VccfejKGqxWCyUSpVKtaYolFKEUD5f0A0jGgm3tqROvX0iFAwKwvdvAq1omqproXCzu9XW2np/eeXY1OTzfw0AIElSqyS1trRMjB3WdUNRlFyhsLm5ZX7WhUJhG6YBAJpuIIQEQYhGwrFoJBQKSqIovcCkBpdAKa0piqqq5XJlL5cvFkuargsCz3M8wQgTqusGpSQYCvb2dE8dGff5fC+bqTJ0HRmGI+keW93q7Gz/8sw5Mwn+gv/EnJIqSWI0Gunv6yWEGAhpqlauVIrFUqlc1jSdUFJT1Gp1U9VUXdMxoZgQSimEUOT5UDgYjUQikXA4FOI4yDKAZeu/EvAxKKXkDysnKcK4VCoVCsVcvlAqlzXdwBgDluUgYFlWEEWzAmYB6/f5JEkMBYOhUDAYDJoLLl75VjGXIIiC2ORteYZhIuFwsVRGGAuv+mEBAERBEAUhFAq2t7WZ890RwggjVdUURdE0TdU0wzAwxrpuGIaBDJTJZlfXNyrlSqVardVUHRkQAJ7jIMfxHBQFURQFURR5fn9dNIQQPFicCiEHoDkFCmOCCSbmgBEh+OFLTDAysKqZbRvDQAZCGCGEMRYEwe/zhYKyLMs+UWRYVvb7IxHBXF3C87xPFAVR9Pt8oiRyHISQA/WTHiFUq9VCoaBTFbl9bnEc196aSqfT3V112J754YJWVhCAwPB+n4+JRh5dXkEIJQQTQjAhhoGMB8ux8MPVsw+XPT9Yn08Zhn2wtvbh72BMdN1QiYoJYRgWsqw5RZjjeAEAaC4WAY/MxjYXTZj/AQgAay7d5zhO4B8sLwHmsXePLty2DE3XC8ViZ0e7dUU8H1tHXocHB5dWVuvi1rPY/8IgfN7V7Y9pPjq4ub8Y+skXj7z9H7/4Yzue+LGTqKqWzeWmJiecCsBWtwb6+06fOcucsrPMp+MqCayAUqooSqWiRCMRp2Kw9Unc2pIqV6qVquVHCnpgjDe3t3u6Ox28eWx1C0IYj8ddciJIc4MQWl/f7D/Q62AMtrrFsuzI8OCNm7fsLPTNpKYolUqlrSXlYAx2u9Xe2rKXy7ntZOXmY319IxqN+BzKmprYnfkIyIG21pbVtXWby33TmJ1fGDv0zJ1d7MFut0RR6O7qvHnrjntOKGk+cvl8qVKxNNfzItjtFoQwHosZhpHdy9lc9JvD5dkrk+Pjju9b4cBoQCQSbm1N3b133/6i3wQ0Tbt0eW5qctzpQJxwyydJqUQil897LXoruLl4p6+3Kxhw/qgOB9xiWTaVTPI8v7Syan/pzQ3G+MI333z4/rtOB8I4dl51NBoJBUPrG5uOn/HXZNy5dz+RSCTizmwo/xjOuAUAONDXQwnd2NxycClsk6Fq2szs/LGpI46sRnwSx6ZoJpPxQEBe39xUFNWpGJoJSpk7d+8FA4H2tlaXDL875hYEcKD/QKFQTO/selXX61OpVO7eWxoZHnTPUVxOTi1vSSVbUsnl1VWvw/j63Fi8Jfv97W2t7lku4GQcAIDDh0Z2d7Mbm1temv51yGSzu5lMX1/Pi+w2bRsOOx4KBifGDl2ev+LI3hDNgWEY128uyrLc3dXpnkrLebcYhhk82A8AXLh2w+lAGpXV9Y1isTQ4MOCelpaJ825xHPezj3/yxemz+ULB6Vgaj3K5fP/+UiqZ6Gh33UnNzrvFMEwwIP/Fn372v/7u753aZb9BQQgt3rmbKxSnjky46mlo4paABgcPtrW1nj1/ESHkdCyNAaV0azu9vLx66q0TksuehiZucYtl2U8//mg7nb6xeNvrM74IpVJ5Zna+t7fbwRWIz8ctbjEM4/NJ771zauHa9bWNDS+b+nx0Xf/m0ozP5zt6xLHlh9+Li9xiGKa9rW1i7PD8lavpnV2nY3EvGOOvL31XKJZ+9MO3XuSETqdwl1scBw/2H4jHYleuXisWS06H41KuLFxbXln74L13ZNnvdCzPw11uMQzj9/smxg9zHDczO1+uVJwOx3Vcv7F4687dD99/N5lwxUSa5+A6t8xk/eTEeLVavXLlqqJ6syT+wM1bt2fm5k4en+5ob3M6lu/HjW6xLBuPRU+e+MHq+sbVazcMw4GzpVzIyurazOz8ienpnu6uhtjGwo1uPZz3nPjk4w+vXL2xcP0mxo8f4fSmsbK6dub8xanJ8aHBgUbZX9ilbpnEotE//8XPZmZm5xauvrE5VULI0vLqxW8ujR8aHR0acmH+/Vmw7s8kFQrF//0P/3R4ZGhq8ojLe0Z1ByG0tLw6v3C1/0Dv5MR4o9RYJg3gljmp8l9/+7twMDR9bNIlCw1sQNf1m4u3b9+9NzoydGhkuIFqLJPGcIthGE3Xvjp7wTCMw6Mj3V2djXUHvwKVSnXuysJuJjM5MX6gr7chGu+P0TBuMQyjafrVa9c3trZ6u7tHhgfdOUBbFza3ti/PzQMAj09PpZJJp8N5RRrJLXOO5crq+uLtO36/b+rIRCzq2IaLFoEQWrh+4/7SSmdH2/jhQ66ao/yyNJhbZr8pk91bvH07k9k7Mj52oK+naZ6PuVz+4rffEUpGhgYP9PVyDX5djefWw41i1ZXVtUuXZzs72t899TbfOCeyPhWM8a07d2cuz/X19owdHo2Eww3Xcn+ShnTLhBBSKpcvzcxeu7H4y59/2tfb43RErwKltFAofnX2fLlSeeeHb3V2tDf6fbJPA7tlQild39z61a//JRgM/vzTT2LRSKN0qSilhmHMzS9c/Hbm6NT48eljbltM8Zo0vFsmCKH5q9cvfP3txOHR8cOHgqGgwPOulQxjXFOU7XT6zNkLsix//OEHsVjUtdG+Mk3illkNlMqV+YWFlZW13p6eA3098VjM7/e56jvTdb1YLKXT6YXrN1mW/eHbJ7o6OpqgafVUmsctE0JILp+/dmMxm80lE7FEIt6aSkWjEWf7koSQarWWyWZ3M9l0eodSOjEx1tPdBZvUKpNmc8uEUFosFu/cvb+d3gn4/X7ZHwwGujo67D+US1W19M7Ozm5GUZRSpSL7fIMD/a2trTzv3rnI9aI53TIxD7/c2k5vbaWrtSqlDISwo721s709HA5ZKllNUXbSu+tbW7lcXhRFnueSiXhHe1s04nANaifN7NY+GONSqbyzm8kV8rqmVypVVdMi4XBPd2cymQgGAq//fRNCVE3N5wtr65vb6R0WsEFZliTJ7/e1trTEYlHxBY4AbjLeCLf2QQjVFKVUKpdK5XKlki8U8oUCxYTj+XA4nEzEUslkLBoRBIEFgGWYJ+u2R85nJMVSKZPd29nN5PMFc5snWZbN043Ns1sDsiyKokPX6jxvllv7EEIQwrqu64ZeU2q1qlIqlfKFYqFYyuULlWrVMBDPC5Ik8BwHAGBZSghFCOsGUlWVZVlJEqORcDwWDQWD0WhE9suy3yeIoijwPM8DAN60WupJ3lC3HsX8BAgxKyPztFhKCNZ0Q9cNZBiEoQylLGAhhAIviKLAQfjgaFcA7DnEtRHx3PKwimbOr3g4i+eWh1V4bnlYheeWh1V4bnlYheeWh1V4bnlYheeWh1V4bnlYheeWh1V4bnlYheeWh1V4bnlYheeWh1V4bnlYheeWh1V4bnlYheeWh1V4bnlYheeWh1V4bnlYheeWh1V4bnlYxf8H+UKANkYy6xMAAAAASUVORK5CYII=;" vertex="1" parent="7">
                    <mxGeometry x="500" y="90" width="201" height="193" as="geometry"/>
                </mxCell>
                <mxCell id="16" value="&lt;font style=&quot;font-size: 14px;&quot;&gt;your volume is:&lt;/font&gt;" style="text;html=1;align=center;verticalAlign=middle;resizable=0;points=[];autosize=1;strokeColor=none;fillColor=none;" vertex="1" parent="1">
                    <mxGeometry x="100" y="458" width="120" height="30" as="geometry"/>
                </mxCell>
            </root>
        </mxGraphModel>
    </diagram>
</mxfile>